<?xml version="1.0" standalone="no"?>
<!DOCTYPE svg PUBLIC "-//W3C//DTD SVG 20010904//EN"
 "http://www.w3.org/TR/2001/REC-SVG-20010904/DTD/svg10.dtd">
<svg version="1.0" xmlns="http://www.w3.org/2000/svg"
 width="395.000000pt" height="395.000000pt" viewBox="0 0 395.000000 395.000000"
 preserveAspectRatio="xMidYMid meet">
<metadata>
Created by potrace 1.11, written by Peter Selinger 2001-2013
</metadata>
<g transform="translate(0.000000,395.000000) scale(0.100000,-0.100000)"
fill="#000000" stroke="none">
<path d="M2485 3193 c-47 -32 -228 -173 -369 -287 -257 -209 -280 -226 -305
-226 -15 0 -59 9 -100 20 -171 46 -234 24 -438 -147 -106 -89 -181 -120 -328
-133 -55 -6 -125 -19 -155 -30 -78 -29 -170 -102 -280 -221 -52 -57 -150 -161
-217 -230 -93 -97 -130 -144 -158 -199 -48 -96 -59 -123 -42 -114 59 36 159
103 189 126 21 17 76 40 135 58 150 44 218 80 318 165 105 90 123 99 253 125
53 11 123 32 155 47 72 34 80 27 85 -67 5 -90 -6 -117 -79 -185 -33 -29 -59
-57 -59 -61 0 -4 35 -4 78 -1 129 10 278 69 330 129 15 18 47 50 71 73 24 22
74 68 110 102 49 46 87 71 142 93 161 67 335 177 443 279 115 111 228 267 284
395 23 51 23 51 114 5 113 -58 284 -217 417 -390 99 -128 505 -479 554 -479 8
0 20 7 27 16 11 13 1 27 -71 98 -176 172 -294 316 -454 552 -108 159 -176 224
-292 280 -75 36 -101 55 -140 101 -125 147 -144 156 -218 106z"/>
<path d="M2594 2470 c-157 -115 -264 -226 -354 -364 -61 -94 -97 -137 -190
-224 -201 -188 -310 -300 -310 -321 0 -21 25 -35 43 -24 6 3 51 38 101 76 90
68 234 166 330 221 45 26 49 27 65 12 15 -16 14 -20 -8 -59 -13 -23 -42 -71
-64 -106 -38 -59 -40 -64 -23 -77 10 -7 25 -10 34 -6 58 21 370 215 416 257
27 24 35 41 40 80 3 28 13 107 21 177 16 124 45 246 81 339 17 44 17 48 1 73
-30 44 -61 35 -183 -54z"/>
<path d="M600 1163 c1 -148 4 -213 13 -224 18 -24 52 -39 86 -39 29 0 31 3 31
34 0 32 -3 35 -32 38 l-33 3 -3 198 -2 197 -30 0 -30 0 0 -207z"/>
<path d="M1250 1340 c0 -28 3 -30 35 -30 32 0 35 2 35 30 0 28 -3 30 -35 30
-32 0 -35 -2 -35 -30z"/>
<path d="M3490 1135 l0 -235 35 0 35 0 0 235 0 235 -35 0 -35 0 0 -235z"/>
<path d="M208 1330 c-52 -16 -98 -52 -126 -98 -25 -44 -27 -56 -31 -189 l-3
-143 36 0 36 0 0 55 0 55 155 0 155 0 0 -55 c0 -54 0 -55 30 -55 l30 0 0 208
c0 148 -3 211 -12 220 -14 14 -226 15 -270 2z m206 -66 c13 -5 16 -23 16 -95
l0 -89 -155 0 -155 0 0 44 c0 53 32 104 80 128 35 18 178 26 214 12z"/>
<path d="M2200 1305 l0 -35 90 0 90 0 0 -185 0 -185 35 0 35 0 0 185 0 185 90
0 90 0 0 35 0 35 -215 0 -215 0 0 -35z"/>
<path d="M860 1212 c-55 -27 -60 -47 -60 -244 l0 -178 35 0 35 0 0 173 c0 121
4 177 12 185 8 8 45 12 99 12 110 0 119 -7 119 -95 0 -96 1 -95 -96 -95 l-84
0 0 -35 0 -35 91 0 c87 0 92 1 120 29 28 29 29 32 29 128 0 111 -10 136 -66
159 -49 21 -190 18 -234 -4z"/>
<path d="M1250 1065 l0 -165 35 0 35 0 0 165 0 165 -35 0 -35 0 0 -165z"/>
<path d="M1433 1219 c-9 -9 -13 -57 -13 -166 l0 -153 30 0 29 0 3 128 3 127
92 0 c129 0 136 -8 141 -150 l4 -105 29 0 29 0 0 108 c0 183 -32 215 -220 220
-84 3 -118 0 -127 -9z"/>
<path d="M2720 1219 c-50 -20 -60 -45 -60 -160 0 -102 1 -107 26 -133 25 -24
33 -26 120 -26 l94 0 0 30 0 30 -78 0 c-47 0 -83 5 -90 12 -16 16 -16 160 0
176 8 8 46 12 104 12 99 0 118 -9 112 -52 -3 -22 -8 -23 -90 -26 l-88 -3 0
-34 0 -35 74 0 c40 0 87 5 105 11 64 23 82 115 32 171 -29 32 -30 32 -132 35
-57 2 -115 -2 -129 -8z"/>
<path d="M3142 1215 c-43 -19 -62 -66 -62 -153 0 -144 23 -162 200 -162 l120
0 0 35 0 34 -122 3 -123 3 -3 78 c-2 50 1 84 9 93 9 11 40 14 125 14 l114 0 0
35 0 35 -112 0 c-75 -1 -124 -6 -146 -15z"/>
<path d="M3610 1196 l0 -36 71 0 c110 0 109 1 109 -140 l0 -120 36 0 36 0 -4
128 c-5 177 -18 193 -160 200 l-88 4 0 -36z"/>
<path d="M1870 1120 l0 -30 140 0 140 0 0 30 0 30 -140 0 -140 0 0 -30z"/>
</g>
</svg>
